<svg width="45" height="35" viewBox="0 0 45 35" fill="none" xmlns="http://www.w3.org/2000/svg">
<path d="M19.412 9.39C18.8293 8.654 18.032 8.11733 17.02 7.78C16.0387 7.412 15.1033 7.228 14.214 7.228C13.6927 7.228 13.156 7.28933 12.604 7.412C12.052 7.53467 11.5307 7.734 11.04 8.01C10.5493 8.25533 10.1507 8.59266 9.844 9.022C9.53733 9.45133 9.384 9.97267 9.384 10.586C9.384 11.5673 9.752 12.3187 10.488 12.84C11.224 13.3613 12.144 13.806 13.248 14.174C14.3827 14.542 15.594 14.91 16.882 15.278C18.17 15.646 19.366 16.1673 20.47 16.842C21.6047 17.5167 22.54 18.4213 23.276 19.556C24.012 20.6907 24.38 22.2087 24.38 24.11C24.38 25.9193 24.0427 27.4987 23.368 28.848C22.6933 30.1973 21.7733 31.3167 20.608 32.206C19.4733 33.0953 18.1393 33.7547 16.606 34.184C15.1033 34.6133 13.5087 34.828 11.822 34.828C9.706 34.828 7.74333 34.506 5.934 33.862C4.12467 33.218 2.438 32.1753 0.874 30.734L5.98 25.122C6.716 26.1033 7.636 26.87 8.74 27.422C9.87467 27.9433 11.04 28.204 12.236 28.204C12.8187 28.204 13.4013 28.1427 13.984 28.02C14.5973 27.8667 15.134 27.652 15.594 27.376C16.0847 27.1 16.468 26.7473 16.744 26.318C17.0507 25.8887 17.204 25.3827 17.204 24.8C17.204 23.8187 16.8207 23.052 16.054 22.5C15.318 21.9173 14.3827 21.4267 13.248 21.028C12.1133 20.6293 10.8867 20.2307 9.568 19.832C8.24933 19.4333 7.02267 18.8967 5.888 18.222C4.75333 17.5473 3.80267 16.658 3.036 15.554C2.3 14.45 1.932 12.9933 1.932 11.184C1.932 9.436 2.26933 7.90267 2.944 6.584C3.64933 5.26533 4.56933 4.16133 5.704 3.272C6.86933 2.38267 8.20333 1.72333 9.706 1.294C11.2087 0.833999 12.7573 0.603999 14.352 0.603999C16.192 0.603999 17.9707 0.864666 19.688 1.386C21.4053 1.90733 22.954 2.78133 24.334 4.008L19.412 9.39Z" fill="#0292FD"/>
<path d="M44.2621 23.098C44.2621 24.6007 44.1241 26.0573 43.8481 27.468C43.6027 28.8787 43.1121 30.136 42.3761 31.24C41.6401 32.3133 40.5821 33.1873 39.2021 33.862C37.8527 34.506 36.0741 34.828 33.8661 34.828C31.2901 34.828 29.1127 34.2147 27.3341 32.988C25.5554 31.7613 24.4054 29.8447 23.8841 27.238L30.4621 25.628C30.5541 26.4253 30.9067 27.1 31.5201 27.652C32.1641 28.204 32.8847 28.48 33.6821 28.48C34.5101 28.48 35.1541 28.2807 35.6141 27.882C36.0741 27.4527 36.4114 26.9313 36.6261 26.318C36.8407 25.7047 36.9634 25.0453 36.9941 24.34C37.0554 23.604 37.0861 22.9293 37.0861 22.316V1.432H44.2621V23.098Z" fill="#00B3FE"/>
</svg>
